<?xml version="1.0"?>
<svg xmlns="http://www.w3.org/2000/svg" width="512px" height="512px" viewBox="0 0 128 128"><g><g><path d="M85.1,64.411a1.75,1.75,0,1,0-2.467,2.483c1.31,1.3,2.591,2.7,3.809,4.17a1.75,1.75,0,0,0,2.693-2.235C87.841,67.275,86.483,65.789,85.1,64.411Z" data-original="#000000" class="active-path" data-old_color="#000000" fill="#FFCA08"/><path d="M105.1,84.327a67.1,67.1,0,0,0-18.351-26.6A28.231,28.231,0,0,0,92.164,44.2a8.248,8.248,0,0,0-1.532-16.352,8.105,8.105,0,0,0-1.33.115A28.412,28.412,0,0,0,65.579,12.452a1.759,1.759,0,0,0-.387-.046,2.5,2.5,0,0,1-2.5-2.5,1.654,1.654,0,0,1,1.652-1.652.973.973,0,0,1,.972.971,1.75,1.75,0,1,0,3.5,0,4.477,4.477,0,0,0-4.472-4.471A5.158,5.158,0,0,0,59.19,9.9a5.941,5.941,0,0,0,.706,2.8A28.443,28.443,0,0,0,38.7,27.958a8.105,8.105,0,0,0-1.33-.115,8.235,8.235,0,0,0-1.535,16.329A28.245,28.245,0,0,0,42.017,58.7,66.9,66.9,0,0,0,22.9,85.98a7.765,7.765,0,0,0,6.184,10.314,7.746,7.746,0,0,0,8.36-4.8A25.6,25.6,0,0,1,38.6,88.914l1.444,7.89a10.288,10.288,0,0,0-5.472,14.288l3.659,7.162a9.22,9.22,0,0,0,8.2,4.993,9.077,9.077,0,0,0,7.553-4.042c.477.177.959.339,1.446.48l3.065.879a19.752,19.752,0,0,0,11.009,0l3.076-.881c.484-.141.964-.3,1.44-.479a9.077,9.077,0,0,0,7.553,4.042,9.222,9.222,0,0,0,8.2-4.992l3.659-7.163A10.288,10.288,0,0,0,87.956,96.8l1.661-9.1q.525,1.064.939,2.133a7.712,7.712,0,0,0,7.206,4.9,8.8,8.8,0,0,0,1.158-.089A7.782,7.782,0,0,0,105.1,84.327Zm-9.72-48.234A4.749,4.749,0,0,1,92.37,40.5a28.233,28.233,0,0,0-1.609-9.147A4.749,4.749,0,0,1,95.382,36.093Zm-62.76,0a4.749,4.749,0,0,1,4.621-4.737,28.212,28.212,0,0,0-1.608,9.125A4.723,4.723,0,0,1,32.622,36.093ZM64,15.906A24.875,24.875,0,1,1,39.127,40.781,24.9,24.9,0,0,1,64,15.906ZM48.246,119.443a5.691,5.691,0,0,1-6.893-2.781l-3.66-7.162a6.8,6.8,0,1,1,12.723-4.4l1.547,7.893A5.691,5.691,0,0,1,48.246,119.443Zm42.345-15.5a6.8,6.8,0,0,1-.28,5.558l-3.66,7.163a5.668,5.668,0,0,1-10.61-3.669l1.547-7.893a6.8,6.8,0,0,1,13-1.159Zm10.854-14.79a4.25,4.25,0,0,1-3.014,2.028,4.3,4.3,0,0,1-4.607-2.6A32,32,0,0,0,90.166,81.8l-.006-.006A39.884,39.884,0,0,0,83.023,74a1.75,1.75,0,1,0-2.262,2.671,36.83,36.83,0,0,1,6.114,6.564L84.523,96.115a10.3,10.3,0,0,0-10.371,8.312l-1.546,7.893a9.064,9.064,0,0,0,.042,3.656c-.345.124-.691.244-1.039.345l-3.075.881a16.271,16.271,0,0,1-9.069,0l-3.065-.878c-.35-.1-.7-.222-1.044-.348a9.059,9.059,0,0,0,.042-3.655l-1.546-7.893A10.3,10.3,0,0,0,43.48,96.115L41.363,84.548a37.307,37.307,0,0,1,5.878-6.227,1.75,1.75,0,1,0-2.258-2.675,40.663,40.663,0,0,0-6.907,7.442l0,0a32.494,32.494,0,0,0-3.9,7.15A4.22,4.22,0,0,1,29.6,92.832,4.3,4.3,0,0,1,25.942,88.6a4.351,4.351,0,0,1,.259-1.454c3.3-9.3,10.2-19.076,18.2-25.882a28.3,28.3,0,0,0,40.084-.879A63.427,63.427,0,0,1,101.8,85.5,4.279,4.279,0,0,1,101.445,89.151Z" data-original="#000000" class="active-path" data-old_color="#000000" fill="#FFCA08"/><path d="M56.715,51.03a1.75,1.75,0,1,0-3.354,1c1.464,4.914,6.4,7.113,10.641,7.113s9.177-2.2,10.641-7.113a1.75,1.75,0,1,0-3.354-1c-.95,3.186-4.345,4.612-7.287,4.612S57.665,54.216,56.715,51.03Z" data-original="#000000" class="active-path" data-old_color="#000000" fill="#FFCA08"/><path d="M70.309,37.613a1.75,1.75,0,0,0,2.387-.651,3.34,3.34,0,0,1,5.921,0,1.75,1.75,0,0,0,3.039-1.737,6.838,6.838,0,0,0-12,0A1.751,1.751,0,0,0,70.309,37.613Z" data-original="#000000" class="active-path" data-old_color="#000000" fill="#FFCA08"/><path d="M47,37.613a1.752,1.752,0,0,0,2.388-.651,3.34,3.34,0,0,1,5.921,0,1.75,1.75,0,0,0,3.039-1.737,6.838,6.838,0,0,0-12,0A1.75,1.75,0,0,0,47,37.613Z" data-original="#000000" class="active-path" data-old_color="#000000" fill="#FFCA08"/></g></g> </svg>
