<?xml version="1.0"?>
<svg xmlns="http://www.w3.org/2000/svg" xmlns:xlink="http://www.w3.org/1999/xlink" version="1.1" id="Capa_1" x="0px" y="0px" viewBox="0 0 480 480" style="enable-background:new 0 0 480 480;" xml:space="preserve" width="512px" height="512px" class=""><g><g>
	<g>
		<path d="M479.977,471.408l-13.232-178.672c-1.896-25.632-20.912-46.616-45.84-50.944l-78.848-18    c-0.016-0.008-0.032-0.016-0.048-0.016l-22.92-5.224c4.024-4.584,7.648-9.608,11.024-14.84c0.336-0.528,0.696-1.032,1.024-1.568    c1.504-2.408,2.904-4.888,4.264-7.408c0.392-0.728,0.784-1.448,1.16-2.184c1.288-2.512,2.496-5.08,3.64-7.696    c0.336-0.768,0.656-1.536,0.976-2.312c1.12-2.712,2.176-5.448,3.136-8.256c0.216-0.632,0.408-1.28,0.616-1.912    c0.984-3.032,1.904-6.096,2.688-9.232c0.04-0.168,0.072-0.344,0.112-0.512c0.864-3.488,1.632-7.016,2.232-10.624h10.04    c13.232,0,24-10.768,24-24s-10.768-24-24-24h-10.04c-0.248-1.48-0.544-2.944-0.832-4.408c0-0.008-0.008-0.024-0.008-0.032    c-0.416-2.08-0.888-4.136-1.392-6.184c-0.04-0.168-0.072-0.344-0.112-0.512c-0.368-1.456-0.712-2.92-1.12-4.36    c0-0.008,0-0.016-0.008-0.016c-0.472-1.648-1.032-3.24-1.56-4.856c-0.208-0.64-0.4-1.28-0.616-1.912    c-0.52-1.512-0.992-3.048-1.56-4.536c-0.552-1.472-1.2-2.888-1.8-4.328c-0.152-0.36-0.296-0.72-0.448-1.072    c-0.664-1.552-1.28-3.128-1.992-4.64c-0.112-0.24-0.248-0.464-0.36-0.704c-1.608-3.368-3.352-6.624-5.208-9.792    c-0.136-0.232-0.288-0.456-0.432-0.688c-1.848-3.112-3.816-6.112-5.896-9.008c-0.24-0.336-0.496-0.648-0.736-0.984    c-1.976-2.704-4.048-5.312-6.216-7.808c-0.432-0.496-0.872-0.984-1.312-1.472c-1.96-2.192-3.984-4.304-6.088-6.328    c-0.736-0.712-1.48-1.416-2.24-2.104c-1.76-1.608-3.568-3.144-5.416-4.632c-1.176-0.96-2.36-1.904-3.576-2.808    c-1.328-0.984-2.688-1.904-4.056-2.816c-0.024-0.016-0.056-0.04-0.08-0.056c-0.488-0.336-0.96-0.688-1.456-1.008    c-1.288-0.84-2.584-1.664-3.904-2.456c-0.504-0.296-1.024-0.56-1.536-0.848c-0.344-0.192-0.688-0.376-1.032-0.568    c-0.888-0.496-1.768-1-2.672-1.472c-2.008-1.048-4.04-2.008-6.112-2.92c-1.2-0.528-2.408-1.032-3.624-1.52    c-1.896-0.752-3.8-1.464-5.744-2.104c-1.528-0.504-3.072-0.936-4.624-1.36c-1.736-0.48-3.464-0.968-5.224-1.352    c-2.008-0.44-4.04-0.752-6.08-1.064c-1.4-0.216-2.784-0.496-4.2-0.648C247.161,0.232,243.601,0,240.001,0    c-3.6,0-7.16,0.232-10.688,0.616c-1.416,0.152-2.8,0.432-4.2,0.648c-2.04,0.312-4.08,0.624-6.08,1.064    c-1.768,0.384-3.496,0.872-5.224,1.352c-1.552,0.432-3.096,0.856-4.624,1.36c-1.944,0.64-3.848,1.352-5.744,2.104    c-1.216,0.48-2.416,0.984-3.616,1.512c-2.064,0.912-4.104,1.88-6.112,2.928c-0.904,0.472-1.784,0.976-2.672,1.472    c-2.192,1.224-4.36,2.488-6.472,3.872c-0.2,0.128-0.4,0.256-0.6,0.392c-0.136,0.08-0.272,0.144-0.408,0.224    c-0.736,0.488-1.416,1.064-2.136,1.576c-1.84,1.288-3.664,2.584-5.424,3.992c-1.024,0.816-1.992,1.704-2.992,2.56    c-1.72,1.472-3.448,2.928-5.088,4.512c-0.712,0.688-1.36,1.432-2.056,2.136c-5.92,6-11.264,12.688-15.968,19.976    c-0.336,0.528-0.696,1.032-1.024,1.568c-0.008,0.016-0.024,0.032-0.032,0.048c-0.224,0.352-0.464,0.688-0.68,1.04    c-1.256,2.056-2.408,4.192-3.56,6.336c-0.352,0.656-0.712,1.296-1.056,1.952c-0.232,0.456-0.48,0.904-0.712,1.368    c-1.072,2.144-2.064,4.336-3.032,6.552c-0.28,0.648-0.568,1.296-0.84,1.952c-0.224,0.544-0.448,1.08-0.672,1.624    c-0.928,2.296-1.792,4.624-2.592,6.992c-0.192,0.552-0.36,1.112-0.544,1.672c-0.096,0.304-0.224,0.584-0.32,0.888    c-0.032,0.104-0.032,0.208-0.056,0.32c-0.864,2.72-1.68,5.464-2.376,8.272c-0.04,0.168-0.072,0.344-0.112,0.512    c-0.864,3.488-1.632,7.016-2.232,10.624h-10.056c-13.232,0-24,10.768-24,24s10.768,24,24,24h10.04    c0.008,0.024,0.008,0.056,0.016,0.08c0.216,1.28,0.456,2.536,0.704,3.8c0.112,0.592,0.208,1.208,0.336,1.808    c-10.024,5.464-16.624,12.496-16.936,12.832c-15.112,16.168-15.2,33.488-15.304,51.824c-0.016,3.424-0.056,6.888-0.16,10.392    l-39.184,8.952c-25.336,4.416-44.352,25.4-46.248,51.032L0.025,471.408c-0.168,2.216,0.6,4.408,2.12,6.04    C3.649,479.072,5.777,480,8.001,480h464c2.224,0,4.352-0.928,5.856-2.552C479.369,475.816,480.137,473.624,479.977,471.408z     M351.649,120h8.352c4.416,0,8,3.584,8,8s-3.584,8-8,8h-8.352c0.144-2.656,0.352-5.296,0.352-8S351.793,122.656,351.649,120z     M128.353,136h-8.352c-4.416,0-8-3.584-8-8s3.584-8,8-8h8.352c-0.144,2.656-0.352,5.296-0.352,8S128.209,133.344,128.353,136z     M324.665,236.224l-84.36,87.912l-49.424-57.072c0.424-0.864,0.912-1.712,1.312-2.576c2.664-5.744,4.864-11.624,6.544-17.544    c0.416,0.192,0.856,0.32,1.272,0.504c0.104,0.048,0.216,0.096,0.32,0.144l1.088,0.488c0.688,0.288,1.376,0.528,2.064,0.8    c1.528,0.608,3.048,1.232,4.6,1.76c0.84,0.288,1.68,0.512,2.528,0.776c0.792,0.248,1.608,0.544,2.384,0.76    c0.016,0.008,0.04,0.008,0.056,0.016c0.024,0.008,0.056,0.016,0.08,0.024l0.872,0.216c0.144,0.04,0.304,0.072,0.448,0.104    c0,0,0,0,0.008,0c0.176,0.048,0.36,0.08,0.536,0.128c1.104,0.288,2.2,0.624,3.32,0.872c1.552,0.352,3.136,0.568,4.704,0.84    c0.624,0.112,1.208,0.24,1.856,0.344c0.04,0.008,0.072,0.016,0.104,0.024l1.272,0.184c0.912,0.128,1.808,0.328,2.728,0.432    s1.864,0.12,2.792,0.192c0.248,0.024,0.52,0.056,0.768,0.08c0.016,0,0.032,0,0.048,0.008h0.008    c2.568,0.224,5.008,0.352,7.352,0.352c0.024,0,0.04,0,0.064,0c0.064,0,0.128-0.008,0.192-0.008c0.336,0,0.68-0.024,1.016-0.024    c0.048,0,0.096,0,0.144,0c2.296-0.032,4.64-0.168,7.08-0.392c0.752-0.064,1.512-0.104,2.256-0.184    c0.904-0.096,1.784-0.256,2.68-0.384l1.128-0.168c0.488-0.072,0.968-0.176,1.456-0.256c1.632-0.272,3.272-0.512,4.88-0.864    c0.008,0,0.016,0,0.024-0.008c0.056-0.016,0.112-0.032,0.168-0.04c1.304-0.288,2.592-0.624,3.88-0.96    c0.24-0.064,0.48-0.112,0.72-0.176c0.488-0.128,0.976-0.296,1.456-0.432c1.128-0.32,2.256-0.632,3.368-1    c0.016-0.008,0.04-0.008,0.056-0.016c0.16-0.048,0.312-0.112,0.472-0.168c1.44-0.472,2.856-0.968,4.272-1.504    c0.224-0.08,0.456-0.152,0.672-0.24c0.528-0.2,1.112-0.448,1.8-0.736c0.832-0.344,1.648-0.736,2.472-1.096    c1.888-0.832,3.752-1.696,5.592-2.64c0.256-0.128,0.512-0.272,0.768-0.4c0.816-0.432,1.616-0.904,2.424-1.352    c2.192-1.224,4.36-2.488,6.472-3.864c0.464-0.304,0.912-0.64,1.376-0.952c1.2-0.808,2.392-1.616,3.56-2.472    c1.264-0.928,2.512-1.856,3.736-2.84c0.416-0.328,0.848-0.648,1.256-0.984L324.665,236.224z M248.001,416c0,4.416-3.584,8-8,8    c-4.416,0-8-3.584-8-8c0-4.416,3.584-8,8-8S248.001,411.584,248.001,416z M155.561,75.04c0.328-0.712,0.696-1.4,1.04-2.112    c0.984-2.024,2.008-4.016,3.096-5.96c0.384-0.696,0.784-1.376,1.184-2.064c1.256-2.136,2.56-4.232,3.944-6.256    c0.216-0.32,0.424-0.648,0.648-0.968c5.224-7.52,11.256-14.232,17.936-19.952c0.096-0.08,0.184-0.16,0.272-0.24    c2.096-1.784,4.272-3.456,6.488-5.04c0.288-0.208,0.584-0.416,0.872-0.624c0.576-0.4,1.176-0.736,1.76-1.12    c15.384-8.776,32.888-13.832,50.144-14.528c8.248,0.296,16.232,1.8,23.832,4.352c1.96,0.672,3.88,1.44,5.792,2.248    c0.76,0.32,1.52,0.624,2.264,0.968c2.104,0.968,4.176,2.024,6.208,3.16c0.504,0.28,1.008,0.56,1.504,0.848    c2.176,1.272,4.312,2.624,6.392,4.072c0.296,0.208,0.584,0.416,0.872,0.624c2.216,1.584,4.392,3.256,6.488,5.04    c0.096,0.08,0.184,0.16,0.272,0.24c13.536,11.592,24.432,27.248,31.288,45.512c0.04,0.112,0.088,0.224,0.128,0.336    c0.992,2.68,1.872,5.424,2.688,8.208c0.152,0.512,0.32,1.008,0.464,1.528c0.672,2.416,1.24,4.888,1.776,7.376    c0.184,0.84,0.4,1.664,0.56,2.512c0.048,0.256,0.072,0.528,0.128,0.792h-4.928c-18.488-5.392-36.168-13.08-52.592-22.864    c-19.84-11.832-37.76-26.624-53.232-43.968c-1.592-1.784-3.848-2.768-6.296-2.664c-2.392,0.096-4.616,1.256-6.056,3.168    c-8.432,11.168-18.728,20.4-30.6,27.448c-7.76,4.616-16.016,8.176-24.656,10.648C155.369,75.528,155.457,75.28,155.561,75.04z     M144.977,112.936c0-0.008,0-0.008,0-0.016c0.768-6.656,2.064-13.096,3.784-19.312c13.928-2.664,27.16-7.52,39.32-14.728    c10.96-6.504,20.752-14.632,29.192-24.216c15.056,15.624,32.048,29.128,50.624,40.208c18.056,10.768,37.536,19.16,57.904,24.944    c0.72,0.2,1.456,0.304,2.184,0.304c0.48,0,0.944-0.04,1.408-0.128h6.248c0.176,2.664,0.36,5.304,0.36,8.008    c0,5.12-0.4,10.128-0.976,15.064c0,0.008,0,0.008,0,0.016c-3.568,30.784-17.84,57.32-38.032,74.816    c-0.744,0.648-1.528,1.248-2.296,1.872c-1.352,1.104-2.728,2.184-4.128,3.208c-0.944,0.68-1.896,1.344-2.856,1.984l-0.008,0.008    c-1.208,0.816-2.44,1.592-3.688,2.352c-0.712,0.432-1.432,0.848-2.16,1.256c-0.512,0.288-1.008,0.6-1.52,0.888    c-0.88,0.48-1.784,0.912-2.68,1.36c-1.544,0.768-3.08,1.544-4.672,2.224c-0.08,0.032-0.168,0.072-0.248,0.104    c-1.672,0.712-3.368,1.368-5.08,1.976c-0.28,0.096-0.56,0.2-0.84,0.296c-1.344,0.464-2.696,0.864-4.056,1.248    c-1.008,0.288-2.024,0.584-3.048,0.832c-0.704,0.176-1.392,0.368-2.104,0.52c-1.384,0.304-2.792,0.52-4.2,0.752    c-0.912,0.152-1.824,0.328-2.744,0.448c-0.544,0.08-1.08,0.168-1.632,0.232c-0.152,0.016-0.28,0.024-0.432,0.04    c-2.616,0.272-5.248,0.448-7.92,0.464c-0.552,0-1.096-0.016-1.632-0.024c-2.512-0.032-5.008-0.248-7.488-0.504    c-1.16-0.128-2.328-0.232-3.488-0.4l-0.304-0.048c-0.32-0.048-0.64-0.12-0.96-0.168c-2.768-0.456-5.504-1-8.192-1.728    c0,0-0.104-0.024-0.128-0.032c-0.056-0.016-0.104-0.024-0.16-0.04c-0.608-0.168-1.208-0.368-1.808-0.544    c-0.648-0.192-1.28-0.464-1.92-0.672c-1.824-0.592-3.648-1.2-5.496-1.944c-0.848-0.344-1.64-0.624-2.536-1.016    c-2.16-0.952-4.28-2.08-6.4-3.216c-0.584-0.32-1.216-0.576-1.792-0.904c-0.264-0.144-0.528-0.272-0.784-0.4    c-23.624-13.648-41.792-38.224-49.504-68.12c0-0.016,0-0.024,0-0.04c-1.224-4.76-2.136-9.76-2.816-14.84    c-0.76-5.648-1.272-11.408-1.272-17.32C144.001,122.88,144.401,117.872,144.977,112.936z M103.225,283.44    c1.288-2.712,2.384-5.336,3.384-7.928c0.328-0.832,0.616-1.656,0.912-2.48c0.672-1.864,1.288-3.68,1.832-5.464    c0.232-0.768,0.488-1.536,0.696-2.288c0.688-2.424,1.28-4.768,1.76-7.016c0.096-0.456,0.176-0.904,0.264-1.36    c0.416-2.04,0.76-3.984,1.04-5.856c0.088-0.56,0.176-1.12,0.248-1.672c0.296-2.168,0.528-4.216,0.704-6.112    c0.064-0.656,0.104-1.296,0.152-1.952c0.04-0.52,0.096-1.08,0.128-1.568c0-0.04-0.016-0.072-0.016-0.104    c0.424-6.128,0.496-11.888,0.52-17.192c0.096-17.064,0.168-29.392,11-40.992c0.048-0.056,3.864-4.016,9.656-7.752    c9.264,27.56,26.576,50.52,48.704,65.128c-0.232,0.96-0.4,1.928-0.664,2.888c-0.528,1.896-1.152,3.8-1.816,5.704    c-0.208,0.6-0.384,1.2-0.6,1.8c-1.848,5.016-4.144,10.056-6.896,15.096c-0.048,0.096-0.056,0.2-0.104,0.296    c-6.856,12.472-16.136,24.016-27.24,33.232c-27.752,23.032-63.136,28.872-73.864,26.616c1.272-1.512,3.024-3.384,4.552-5.016    C84.457,312.104,94.857,301.008,103.225,283.44z M16.617,464l12.592-170.08c1.36-18.312,14.944-33.304,33.456-36.536l34.528-7.88    c-0.352,2.248-0.792,4.44-1.28,6.592c-0.144,0.64-0.328,1.288-0.488,1.928c-0.384,1.552-0.792,3.088-1.248,4.608    c-0.384,1.248-0.84,2.536-1.288,3.816c-0.352,1-0.672,2-1.056,2.992c-0.904,2.328-1.904,4.696-3.056,7.128    c-7.288,15.32-16.296,24.92-22.872,31.936c-7.064,7.536-13.736,14.664-8.888,23.384c2.352,4.24,6.84,7.008,13.352,8.224    c2.312,0.44,4.912,0.64,7.688,0.696c0.304,0.008,0.584,0.032,0.896,0.032c0.096,0,0.176,0.008,0.272,0.008    c2.712,0,5.624-0.184,8.672-0.528c1.184-0.136,2.456-0.4,3.672-0.584c2.088-0.312,4.168-0.632,6.352-1.096    c1.52-0.32,3.072-0.752,4.624-1.144c2.024-0.512,4.04-1.04,6.112-1.672c1.632-0.496,3.256-1.056,4.912-1.624    c2.096-0.72,4.184-1.496,6.304-2.336c1.64-0.648,3.256-1.32,4.896-2.04c2.208-0.968,4.392-2.032,6.584-3.128    c1.536-0.768,3.056-1.512,4.576-2.344c2.416-1.32,4.776-2.768,7.136-4.24c1.248-0.776,2.512-1.496,3.744-2.32    c3.544-2.376,7.008-4.904,10.312-7.64c9.76-8.096,18.336-17.8,25.36-28.368l49.52,57.192v54.496c-9.288,3.312-16,12.112-16,22.528    c0,13.232,10.768,24,24,24s24-10.768,24-24c0-10.416-6.712-19.216-16-22.528v-54.256l94.856-98.84l74.888,17.088    c18.096,3.152,31.688,18.144,33.048,36.456L463.385,464H16.617z" data-original="#000000" class="active-path" data-old_color="#000000" fill="#FFCA08"/>
	</g>
</g><g>
	<g>
		<path d="M192.001,120c-13.944,0-24.032,6.016-28.808,9.6l9.608,12.8c3.184-2.392,9.904-6.4,19.2-6.4    c3.984,0,11.776,0.832,19.2,6.4l9.6-12.8C209.665,121.248,197.977,120,192.001,120z" data-original="#000000" class="active-path" data-old_color="#000000" fill="#FFCA08"/>
	</g>
</g><g>
	<g>
		<path d="M288.001,120c-13.944,0-24.032,6.016-28.808,9.6l9.608,12.8c3.184-2.392,9.904-6.4,19.2-6.4    c3.984,0,11.776,0.832,19.2,6.4l9.592-12.8C305.665,121.248,293.977,120,288.001,120z" data-original="#000000" class="active-path" data-old_color="#000000" fill="#FFCA08"/>
	</g>
</g><g>
	<g>
		<path d="M259.201,185.6c-7.424,5.568-15.216,6.4-19.2,6.4c-9.296,0-16.016-4.008-19.192-6.4l-9.608,12.8    c4.768,3.584,14.856,9.6,28.8,9.6c5.976,0,17.664-1.248,28.8-9.6L259.201,185.6z" data-original="#000000" class="active-path" data-old_color="#000000" fill="#FFCA08"/>
	</g>
</g><g>
	<g>
		<path d="M419.409,360.24c-9.608-23.96-33.264-40.24-59.408-40.24c-26.144,0-49.8,16.28-59.408,40.24    c-11.624,1.656-20.592,11.68-20.592,23.76c0,12.08,8.968,22.104,20.592,23.76c9.608,23.96,33.264,40.24,59.408,40.24    c26.144,0,49.8-16.28,59.408-40.24c11.624-1.656,20.592-11.68,20.592-23.76C440.001,371.92,431.033,361.896,419.409,360.24z     M416.001,392h-2.352c-3.536,0-6.656,2.328-7.664,5.72c-6.008,20.184-24.92,34.28-45.984,34.28    c-21.064,0-39.976-14.096-45.984-34.28c-1.008-3.392-4.128-5.72-7.664-5.72h-2.352c-4.416,0-8-3.584-8-8c0-4.416,3.584-8,8-8    h2.352c3.536,0,6.656-2.328,7.664-5.72c4.28-14.376,15.152-25.544,28.632-30.848c-1,5.488-0.32,11.104,2.2,16.144    c3.08,6.16,8.4,10.76,14.976,12.952c2.712,0.896,5.504,1.352,8.264,1.352c3.952,0,7.864-0.912,11.496-2.728l-7.16-14.312    c-2.336,1.168-5.016,1.36-7.536,0.504c-2.52-0.84-4.56-2.592-5.728-4.928c-1.168-2.336-1.352-5.016-0.504-7.536    c0.656-1.968,1.992-3.504,3.608-4.696c20.128,0.976,37.928,14.64,43.72,34.096c1.008,3.392,4.128,5.72,7.664,5.72h2.352    c4.416,0,8,3.584,8,8C424.001,388.416,420.417,392,416.001,392z" data-original="#000000" class="active-path" data-old_color="#000000" fill="#FFCA08"/>
	</g>
</g><g>
	<g>
		<rect x="328.001" y="376" width="16" height="16" data-original="#000000" class="active-path" data-old_color="#000000" fill="#FFCA08"/>
	</g>
</g><g>
	<g>
		<rect x="376.001" y="376" width="16" height="16" data-original="#000000" class="active-path" data-old_color="#000000" fill="#FFCA08"/>
	</g>
</g><g>
	<g>
		<rect x="352.001" y="400" width="16" height="16" data-original="#000000" class="active-path" data-old_color="#000000" fill="#FFCA08"/>
	</g>
</g></g> </svg>
