<?xml version="1.0"?>
<svg xmlns="http://www.w3.org/2000/svg" width="512px" height="512px" viewBox="0 0 128 128" class=""><g><g><path d="M50.5,63.127H44.25v-6.25a1.75,1.75,0,0,0-1.75-1.75h-8a1.75,1.75,0,0,0-1.75,1.75v6.25H26.5a1.75,1.75,0,0,0-1.75,1.75v8a1.75,1.75,0,0,0,1.75,1.75h6.25v6.25a1.75,1.75,0,0,0,1.75,1.75h8a1.75,1.75,0,0,0,1.75-1.75v-6.25H50.5a1.75,1.75,0,0,0,1.75-1.75v-8A1.75,1.75,0,0,0,50.5,63.127Zm-1.75,8H42.5a1.75,1.75,0,0,0-1.75,1.75v6.25h-4.5v-6.25a1.75,1.75,0,0,0-1.75-1.75H28.25v-4.5H34.5a1.75,1.75,0,0,0,1.75-1.75v-6.25h4.5v6.25a1.75,1.75,0,0,0,1.75,1.75h6.25Z" data-original="#000000" class="active-path" data-old_color="#000000" fill="#FFCA08"/><path d="M116.25,24.378H62.75a1.75,1.75,0,0,0,0,3.5h53.5a1.75,1.75,0,0,0,0-3.5Z" data-original="#000000" class="active-path" data-old_color="#000000" fill="#FFCA08"/><path d="M116.25,33.71H62.75a1.75,1.75,0,0,0,0,3.5h53.5a1.75,1.75,0,0,0,0-3.5Z" data-original="#000000" class="active-path" data-old_color="#000000" fill="#FFCA08"/><path d="M116.25,43.042H85.258a1.75,1.75,0,0,0,0,3.5H116.25a1.75,1.75,0,0,0,0-3.5Z" data-original="#000000" class="active-path" data-old_color="#000000" fill="#FFCA08"/><path d="M116.25,52.373H85.258a1.75,1.75,0,0,0,0,3.5H116.25a1.75,1.75,0,0,0,0-3.5Z" data-original="#000000" class="active-path" data-old_color="#000000" fill="#FFCA08"/><path d="M121.25,14.378H57.75A6.758,6.758,0,0,0,51,21.128v22H6.75A6.758,6.758,0,0,0,0,49.879V87.874a6.757,6.757,0,0,0,6.75,6.75H22.406v17.248a1.75,1.75,0,0,0,2.716,1.459L53.371,94.624H70.25A6.757,6.757,0,0,0,77,87.874V67.387l25.875,17.191a1.75,1.75,0,0,0,2.719-1.457V65.873H121.25a6.757,6.757,0,0,0,6.75-6.75V21.128A6.758,6.758,0,0,0,121.25,14.378Zm-51,76.746H52.844a1.746,1.746,0,0,0-.966.292l-25.972,17.2V92.874a1.75,1.75,0,0,0-1.75-1.75H6.75a3.253,3.253,0,0,1-3.25-3.25V49.879a3.254,3.254,0,0,1,3.25-3.25h63.5a3.254,3.254,0,0,1,3.25,3.25V87.874A3.253,3.253,0,0,1,70.25,91.124Zm54.25-32a3.253,3.253,0,0,1-3.25,3.25H103.844a1.75,1.75,0,0,0-1.75,1.75V79.857L77,63.185V49.879a6.758,6.758,0,0,0-6.75-6.75H54.5v-22a3.254,3.254,0,0,1,3.25-3.25h63.5a3.254,3.254,0,0,1,3.25,3.25Z" data-original="#000000" class="active-path" data-old_color="#000000" fill="#FFCA08"/></g></g> </svg>
