<?xml version="1.0"?>
<svg xmlns="http://www.w3.org/2000/svg" id="Layer_1" enable-background="new 0 0 512 512" height="512px" viewBox="0 0 512 512" width="512px"><g><path d="m473.44 33.3-128.55-.58c-6.99-14.21-21.43-23.24-37.27-23.32h-.19c-15.76.02-30.17 8.91-37.26 22.98l-128.58-.58c-14.52-.07-26.34 11.65-26.41 26.17l-1.01 222.76-1.77-1.79c-4.86-4.93-11.49-7.71-18.41-7.72h-.12c-14.36 0-26.02 11.6-26.09 25.96-.01 4.02.9 7.98 2.66 11.58-1.64 3.3-2.56 6.92-2.7 10.6-22.29 17.54-36.29 43.55-38.64 71.81-15.17 7.85-21.11 26.51-13.26 41.68 5.01 9.7 14.76 16.03 25.66 16.67 17.9 32.69 52.19 53.03 89.46 53.08h.48c19.98.04 39.54-5.76 56.26-16.69l283.68 1.29h.13c14.47 0 26.22-11.7 26.28-26.17l1.83-401.3c.05-14.52-11.66-26.35-26.18-26.43zm-200.85 42.03h.03c3.86 0 6.99-3.11 7-6.97l.08-17.36c.09-15.26 12.48-27.58 27.73-27.6h.13c15.293 0 27.671 12.435 27.601 27.728l-.081 17.492c-.02 3.86 3.1 7.01 6.97 7.03l56.67.26-.15 32.3-182.79-.83.07-15.11.07-17.19zm136.93 289.01h-.12c-14.47.01-26.22 11.7-26.29 26.18l-.13 29.14-132.62-.6c-.12-11.36-6.48-21.74-16.55-27-2.11-28.69-16.24-55.15-38.9-72.86-.21-3.43-1.09-6.78-2.6-9.87 4.98-10.02 3.05-22.08-4.8-30.05-3.92-3.98-9.02-6.58-14.55-7.42l.78-170.13c0-1.46 1.19-2.63 2.64-2.64h.01l25.43.12-.07 15.11c-.01 3.86 3.11 7.01 6.97 7.03l196.8.9h.03c.717 0 1.438-.084 2.116-.316 3.039-1.037 4.858-3.747 4.874-6.654l.07-15.11 25.43.11c1.46.01 2.64 1.2 2.63 2.66l-1.18 261.54zm20.24 14.09-32.74 32.45.09-20.304c.03-6.766 5.524-12.236 12.29-12.236h.06zm-251.238-64.918c1.599 2.11 2.458 4.689 2.438 7.328-.04 6.66-5.45 12.03-12.09 12.03h-.06c-3.188 0-6.244-1.274-8.489-3.538l-6.731-6.792c1.201-1.815 3.984-6.547 4.06-13.209.078-6.862-2.762-11.766-3.94-13.581 2.25-2.23 4.5-4.46 6.75-6.69 2.26-2.25 5.32-3.51 8.51-3.5h.06c6.67.03 12.06 5.47 12.03 12.15-.01 2.64-.89 5.21-2.5 7.3-1.933 2.51-1.952 5.977-.038 8.502zm-49.342-255.482c.01-3.26 1.32-6.38 3.64-8.67 2.3-2.29 5.41-3.57 8.65-3.56h.06l124.45.56c-.17 1.52-.27 3.05-.27 4.58l-.05 10.36-56.67-.26h-.03c-3.86 0-6.98 3.12-7 6.97l-.08 17.2-25.43-.12h-.07c-9.16.01-16.6 7.41-16.65 16.57l-.78 171.9c-3.11 1.29-5.94 3.18-8.34 5.55l-7.03 6.97c-3.72-1.99-7.87-3.03-12.09-3.05h-.12c-1.07 0-2.15.07-3.21.2zm3.767 239.099c5.358.676 9.682 5.009 10.347 10.369.977 7.865-5.643 14.454-13.497 13.451-5.347-.683-9.663-5-10.338-10.348-.991-7.853 5.621-14.465 13.488-13.472zm-48.737 7.451c-4.01-5.33-2.95-12.91 2.38-16.93 2.1-1.58 4.65-2.43 7.28-2.43h.05c3.21 0 6.28 1.29 8.53 3.57l6.69 6.75c-1.222 2.066-3.799 7.055-3.698 13.877.093 6.244 2.381 10.827 3.588 12.903-2.25 2.23-4.5 4.46-6.75 6.69-4.75 4.7-12.4 4.66-17.1-.08-4.25-4.29-4.68-11.07-1-15.87 1.92-2.49 1.93-5.97.03-8.48zm47.23 184.02h-.42c-33.57-.05-64.22-19.14-79.05-49.26-1.3-2.61-4.07-4.14-6.97-3.86-.63.07-1.22.09-1.77.09-9.35-.03-16.9-7.63-16.87-16.98.03-7.29 4.72-13.74 11.64-16.02 2.78-.91 4.69-3.44 4.81-6.36.93-23.67 11.34-45.97 28.9-61.88 7.68 12.19 23.78 15.84 35.97 8.17 1.6-1.02 3.09-2.2 4.44-3.53l7.03-6.97c3.73 1.99 7.88 3.03 12.1 3.05h.12c4.18 0 8.3-1.01 12.01-2.94l6.96 7.03c10.17 10.23 26.71 10.29 36.94.12 1.49-1.47 2.79-3.12 3.88-4.91 17.76 16.08 28.19 38.69 28.9 62.64.1 2.92 2 5.48 4.78 6.41 8.86 2.97 13.64 12.57 10.66 21.43-2.31 6.89-8.77 11.54-16.04 11.54h-.08c-.59-.01-1.19-.04-1.77-.11-2.92-.35-5.74 1.16-7.07 3.78-15.04 29.86-45.67 48.66-79.1 48.56zm352.35-27.64c-.02 6.77-5.52 12.24-12.29 12.24h-.06l-266.78-1.21c6.34-6.47 11.8-13.75 16.24-21.65 11.27-.54 21.36-7.17 26.34-17.3 0 0 101.17.455 133.122.604 6.138.029 12.058-2.27 16.569-6.433l51.049-47.111c3.51-3.46 5.49-8.18 5.5-13.11l1.19-263.99c.05-9.19-7.37-16.68-16.56-16.72-.01 0-.01 0-.01 0l-25.43-.12.08-17.2c.02-3.86-3.1-7.01-6.97-7.03l-56.67-.25.05-10.37c0-1.53-.07-3.06-.23-4.58l124.45.57c6.78.04 12.26 5.56 12.23 12.35z" data-original="#000000" class="active-path" data-old_color="#000000" fill="#FFCA08"/><path d="m398.045 169.157h-.032c-3.866-.009-7.007 3.118-7.016 6.984s3.118 7.007 6.984 7.016l7.251.033h.033c3.866.009 7.007-3.118 7.016-6.984s-3.118-7.007-6.984-7.016z" data-original="#000000" class="active-path" data-old_color="#000000" fill="#FFCA08"/><path d="m269.07 182.572 106.322.482h.032c3.866.009 7.007-3.118 7.016-6.984s-3.118-7.007-6.984-7.016l-106.322-.482h-.034c-3.866-.009-7.007 3.118-7.016 6.984s3.118 7.007 6.984 7.016z" data-original="#000000" class="active-path" data-old_color="#000000" fill="#FFCA08"/><path d="m208.439 182.3 37.589.171h.032c3.866.009 7.007-3.118 7.016-6.984s-3.118-7.007-6.984-7.016l-37.592-.171h-.032c-3.866-.009-7.007 3.118-7.016 6.984s3.118 7.007 6.984 7.016z" data-original="#000000" class="active-path" data-old_color="#000000" fill="#FFCA08"/><path d="m405.061 221.2-20.324-.091h-.032c-3.866-.009-7.007 3.118-7.016 6.984s3.118 7.007 6.984 7.016l20.327.091h.032c3.866.009 7.007-3.118 7.016-6.984s-3.118-7.007-6.984-7.016z" data-original="#000000" class="active-path" data-old_color="#000000" fill="#FFCA08"/><path d="m335.033 220.886h-.033c-3.866-.009-7.007 3.118-7.016 6.984s3.118 7.007 6.984 7.016l27.7.126h.032c3.866.009 7.007-3.118 7.016-6.984s-3.118-7.007-6.984-7.016z" data-original="#000000" class="active-path" data-old_color="#000000" fill="#FFCA08"/><path d="m208.2 234.311 107.427.488h.033c3.866.009 7.007-3.118 7.016-6.984s-3.118-7.007-6.984-7.016l-107.427-.488h-.033c-3.866-.009-7.007 3.118-7.016 6.984s3.118 7.007 6.984 7.016z" data-original="#000000" class="active-path" data-old_color="#000000" fill="#FFCA08"/><path d="m404.81 276.461-43.192-.2h-.033c-3.866-.009-7.007 3.118-7.016 6.984s3.118 7.007 6.984 7.016l43.192.2h.032c3.866.009 7.007-3.118 7.016-6.984.01-3.866-3.117-7.007-6.983-7.016z" data-original="#000000" class="active-path" data-old_color="#000000" fill="#FFCA08"/><path d="m339.58 290.164c3.866.009 7.007-3.118 7.016-6.984s-3.118-7.007-6.984-7.016l-131.595-.6h-.032c-3.866-.009-7.007 3.118-7.016 6.984s3.118 7.007 6.984 7.016l131.6.6z" data-original="#000000" class="active-path" data-old_color="#000000" fill="#FFCA08"/><path d="m404.578 327.532-121.849-.553h-.029c-3.866-.009-7.007 3.118-7.016 6.984s3.118 7.007 6.984 7.016l121.848.553h.032c3.866.009 7.007-3.118 7.016-6.984s-3.118-7.007-6.984-7.016z" data-original="#000000" class="active-path" data-old_color="#000000" fill="#FFCA08"/><path d="m260.723 326.879-33.168-.151h-.033c-3.866-.009-7.007 3.118-7.016 6.984s3.118 7.007 6.984 7.016l33.169.151h.032c3.866.009 7.007-3.118 7.016-6.984s-3.118-7.007-6.984-7.016z" data-original="#000000" class="active-path" data-old_color="#000000" fill="#FFCA08"/><path d="m76.151 383.093h-.051c-6.508-.015-11.797 5.248-11.812 11.756s5.248 11.797 11.756 11.812h.056c6.508.014 11.795-5.251 11.809-11.759s-5.251-11.795-11.758-11.809zm-.052 14h-.011c-1.224-.002-2.214-.997-2.212-2.221s.997-2.214 2.221-2.211h.01c1.224.002 2.214.996 2.212 2.22s-.996 2.214-2.22 2.212z" data-original="#000000" class="active-path" data-old_color="#000000" fill="#FFCA08"/><path d="m198.659 395.434c.03-6.509-5.221-11.809-11.73-11.84s-11.809 5.221-11.84 11.73 5.221 11.809 11.73 11.84h.003.053c6.483-.009 11.746-5.247 11.784-11.73zm-10.224 1.519c-.421.408-.983.639-1.57.643-1.224-.002-2.214-.997-2.212-2.22.002-1.224.997-2.214 2.221-2.212h.01c1.224.005 2.212 1.002 2.206 2.226-.003.587-.238 1.149-.655 1.563z" data-original="#000000" class="active-path" data-old_color="#000000" fill="#FFCA08"/><path d="m165.287 426.061h-.032c-3.854 0-6.982 3.115-7 6.968-.008 15.159-12.304 27.441-27.463 27.433s-27.441-12.304-27.433-27.463c0-.073 0-.146.001-.219.018-3.866-3.101-7.015-6.967-7.033h-.001-.033c-3.854 0-6.982 3.115-7 6.968-.076 22.879 18.38 41.504 41.259 41.637h.191c22.805-.03 41.313-18.455 41.445-41.26.018-3.865-3.101-7.013-6.967-7.031z" data-original="#000000" class="active-path" data-old_color="#000000" fill="#FFCA08"/></g> </svg>
